<svg width="3002" height="3002" viewBox="0 0 3002 3002" fill="none" xmlns="http://www.w3.org/2000/svg">
<path d="M1501 1L1501.08 1499.5L1657.79 9.21716L1501.23 1499.52L1812.87 33.7786L1501.39 1499.55L1964.53 74.4153L1501.54 1499.6L2111.1 130.682L1501.68 1499.66L2251 201.962L1501.82 1499.74L2382.68 287.474L1501.94 1499.83L2504.7 386.283L1502.06 1499.94L2615.72 497.304L1502.17 1500.06L2714.53 619.322L1502.26 1500.18L2800.04 751L1502.34 1500.32L2871.32 890.895L1502.4 1500.46L2927.58 1037.47L1502.45 1500.61L2968.22 1189.13L1502.48 1500.77L2992.78 1344.21L1502.5 1500.92L3001 1501L1502.5 1501.08L2992.78 1657.79L1502.48 1501.23L2968.22 1812.87L1502.45 1501.39L2927.58 1964.53L1502.4 1501.54L2871.32 2111.1L1502.34 1501.68L2800.04 2251L1502.26 1501.82L2714.53 2382.68L1502.17 1501.94L2615.72 2504.7L1502.06 1502.06L2504.7 2615.72L1501.94 1502.17L2382.68 2714.53L1501.82 1502.26L2251 2800.04L1501.68 1502.34L2111.1 2871.32L1501.54 1502.4L1964.53 2927.58L1501.39 1502.45L1812.87 2968.22L1501.23 1502.48L1657.79 2992.78L1501.08 1502.5L1501 3001L1500.92 1502.5L1344.21 2992.78L1500.77 1502.48L1189.13 2968.22L1500.61 1502.45L1037.47 2927.58L1500.46 1502.4L890.895 2871.32L1500.32 1502.34L751 2800.04L1500.18 1502.26L619.322 2714.53L1500.06 1502.17L497.304 2615.72L1499.94 1502.06L386.283 2504.7L1499.83 1501.94L287.474 2382.68L1499.74 1501.82L201.962 2251L1499.66 1501.68L130.682 2111.1L1499.6 1501.54L74.4153 1964.53L1499.55 1501.39L33.7786 1812.87L1499.52 1501.23L9.21716 1657.79L1499.5 1501.08L1 1501L1499.5 1500.92L9.21716 1344.21L1499.52 1500.77L33.7786 1189.13L1499.55 1500.61L74.4153 1037.47L1499.6 1500.46L130.682 890.895L1499.66 1500.32L201.962 751L1499.74 1500.18L287.474 619.322L1499.83 1500.06L386.283 497.304L1499.94 1499.94L497.304 386.283L1500.06 1499.83L619.322 287.474L1500.18 1499.74L751 201.962L1500.32 1499.66L890.895 130.682L1500.46 1499.6L1037.47 74.4153L1500.61 1499.55L1189.13 33.7786L1500.77 1499.52L1344.21 9.21716L1500.92 1499.5L1501 1Z" stroke="url(#paint0_radial_346_53)" stroke-width="0.5" stroke-linejoin="round"/>
<defs>
<radialGradient id="paint0_radial_346_53" cx="0" cy="0" r="1" gradientUnits="userSpaceOnUse" gradientTransform="translate(1501 1501) rotate(90) scale(1500)">
<stop offset="0.802083" stop-color="#FFF4E6"/>
<stop offset="1" stop-color="#FFF4E6" stop-opacity="0"/>
</radialGradient>
</defs>
</svg>
